<mxfile host="app.diagrams.net" modified="2024-01-02T10:01:13.737Z" agent="Mozilla/5.0 (Windows NT 10.0; Win64; x64) AppleWebKit/537.36 (KHTML, like Gecko) Chrome/120.0.0.0 Safari/537.36 Edg/120.0.0.0" etag="2WptwG5BWtbo8U1q22NJ" version="22.1.16" type="device">
  <diagram name="Page-1" id="hVJWpswuUcJ-cwuT7wtP">
    <mxGraphModel dx="1146" dy="763" grid="1" gridSize="10" guides="1" tooltips="1" connect="1" arrows="1" fold="1" page="1" pageScale="1" pageWidth="850" pageHeight="1100" math="0" shadow="0">
      <root>
        <mxCell id="0" />
        <mxCell id="1" parent="0" />
        <mxCell id="V9xXHOny_GglPppxw2Oy-14" style="edgeStyle=orthogonalEdgeStyle;rounded=0;orthogonalLoop=1;jettySize=auto;html=1;exitX=0.5;exitY=0;exitDx=0;exitDy=0;entryX=0.5;entryY=1;entryDx=0;entryDy=0;" parent="1" source="V9xXHOny_GglPppxw2Oy-1" target="V9xXHOny_GglPppxw2Oy-13" edge="1">
          <mxGeometry relative="1" as="geometry" />
        </mxCell>
        <mxCell id="V9xXHOny_GglPppxw2Oy-1" value="Activated layer n" style="rounded=0;whiteSpace=wrap;html=1;" parent="1" vertex="1">
          <mxGeometry x="140" y="120" width="80" height="40" as="geometry" />
        </mxCell>
        <mxCell id="V9xXHOny_GglPppxw2Oy-5" style="edgeStyle=orthogonalEdgeStyle;rounded=0;orthogonalLoop=1;jettySize=auto;html=1;exitX=0.5;exitY=0;exitDx=0;exitDy=0;entryX=0.5;entryY=1;entryDx=0;entryDy=0;" parent="1" source="V9xXHOny_GglPppxw2Oy-2" target="V9xXHOny_GglPppxw2Oy-1" edge="1">
          <mxGeometry relative="1" as="geometry" />
        </mxCell>
        <mxCell id="V9xXHOny_GglPppxw2Oy-2" value="Activation function" style="rounded=0;whiteSpace=wrap;html=1;" parent="1" vertex="1">
          <mxGeometry x="40" y="200" width="80" height="40" as="geometry" />
        </mxCell>
        <mxCell id="V9xXHOny_GglPppxw2Oy-4" style="edgeStyle=orthogonalEdgeStyle;rounded=0;orthogonalLoop=1;jettySize=auto;html=1;exitX=0.5;exitY=0;exitDx=0;exitDy=0;entryX=0.5;entryY=1;entryDx=0;entryDy=0;" parent="1" source="V9xXHOny_GglPppxw2Oy-3" target="V9xXHOny_GglPppxw2Oy-1" edge="1">
          <mxGeometry relative="1" as="geometry" />
        </mxCell>
        <mxCell id="V9xXHOny_GglPppxw2Oy-3" value="Layer n" style="rounded=0;whiteSpace=wrap;html=1;" parent="1" vertex="1">
          <mxGeometry x="140" y="200" width="80" height="40" as="geometry" />
        </mxCell>
        <mxCell id="V9xXHOny_GglPppxw2Oy-7" style="edgeStyle=orthogonalEdgeStyle;rounded=0;orthogonalLoop=1;jettySize=auto;html=1;exitX=0.5;exitY=0;exitDx=0;exitDy=0;entryX=0.5;entryY=1;entryDx=0;entryDy=0;" parent="1" source="V9xXHOny_GglPppxw2Oy-6" target="V9xXHOny_GglPppxw2Oy-3" edge="1">
          <mxGeometry relative="1" as="geometry" />
        </mxCell>
        <mxCell id="V9xXHOny_GglPppxw2Oy-6" value="Activated layer n-1" style="rounded=0;whiteSpace=wrap;html=1;" parent="1" vertex="1">
          <mxGeometry x="140" y="280" width="80" height="40" as="geometry" />
        </mxCell>
        <mxCell id="V9xXHOny_GglPppxw2Oy-9" style="edgeStyle=orthogonalEdgeStyle;rounded=0;orthogonalLoop=1;jettySize=auto;html=1;exitX=0.5;exitY=0;exitDx=0;exitDy=0;entryX=0.5;entryY=1;entryDx=0;entryDy=0;" parent="1" source="V9xXHOny_GglPppxw2Oy-8" target="V9xXHOny_GglPppxw2Oy-3" edge="1">
          <mxGeometry relative="1" as="geometry" />
        </mxCell>
        <mxCell id="V9xXHOny_GglPppxw2Oy-8" value="Weights n-1" style="rounded=0;whiteSpace=wrap;html=1;" parent="1" vertex="1">
          <mxGeometry x="40" y="280" width="80" height="40" as="geometry" />
        </mxCell>
        <mxCell id="V9xXHOny_GglPppxw2Oy-11" style="edgeStyle=orthogonalEdgeStyle;rounded=0;orthogonalLoop=1;jettySize=auto;html=1;exitX=0.5;exitY=0;exitDx=0;exitDy=0;entryX=0.5;entryY=1;entryDx=0;entryDy=0;" parent="1" source="V9xXHOny_GglPppxw2Oy-10" target="V9xXHOny_GglPppxw2Oy-3" edge="1">
          <mxGeometry relative="1" as="geometry" />
        </mxCell>
        <mxCell id="V9xXHOny_GglPppxw2Oy-10" value="Biases n-1" style="rounded=0;whiteSpace=wrap;html=1;" parent="1" vertex="1">
          <mxGeometry x="240" y="280" width="80" height="40" as="geometry" />
        </mxCell>
        <mxCell id="V9xXHOny_GglPppxw2Oy-16" style="edgeStyle=orthogonalEdgeStyle;rounded=0;orthogonalLoop=1;jettySize=auto;html=1;exitX=0.5;exitY=0;exitDx=0;exitDy=0;entryX=0.5;entryY=1;entryDx=0;entryDy=0;" parent="1" source="V9xXHOny_GglPppxw2Oy-12" target="V9xXHOny_GglPppxw2Oy-13" edge="1">
          <mxGeometry relative="1" as="geometry" />
        </mxCell>
        <mxCell id="V9xXHOny_GglPppxw2Oy-12" value="One-Hot output vector" style="rounded=0;whiteSpace=wrap;html=1;" parent="1" vertex="1">
          <mxGeometry x="40" y="120" width="80" height="40" as="geometry" />
        </mxCell>
        <mxCell id="V9xXHOny_GglPppxw2Oy-13" value="Cost" style="rounded=0;whiteSpace=wrap;html=1;" parent="1" vertex="1">
          <mxGeometry x="140" y="40" width="80" height="40" as="geometry" />
        </mxCell>
        <mxCell id="V9xXHOny_GglPppxw2Oy-17" value="What we want to change" style="rounded=0;whiteSpace=wrap;html=1;dashed=1;" parent="1" vertex="1">
          <mxGeometry x="240" y="200" width="80" height="40" as="geometry" />
        </mxCell>
        <mxCell id="V9xXHOny_GglPppxw2Oy-18" value="" style="endArrow=none;dashed=1;html=1;dashPattern=1 3;strokeWidth=2;rounded=0;entryX=0.75;entryY=0;entryDx=0;entryDy=0;exitX=0.5;exitY=1;exitDx=0;exitDy=0;" parent="1" source="V9xXHOny_GglPppxw2Oy-17" target="V9xXHOny_GglPppxw2Oy-8" edge="1">
          <mxGeometry width="50" height="50" relative="1" as="geometry">
            <mxPoint x="440" y="190" as="sourcePoint" />
            <mxPoint x="150" y="470" as="targetPoint" />
          </mxGeometry>
        </mxCell>
        <mxCell id="V9xXHOny_GglPppxw2Oy-19" value="" style="endArrow=none;dashed=1;html=1;dashPattern=1 3;strokeWidth=2;rounded=0;entryX=0.75;entryY=0;entryDx=0;entryDy=0;exitX=0.75;exitY=1;exitDx=0;exitDy=0;" parent="1" source="V9xXHOny_GglPppxw2Oy-17" target="V9xXHOny_GglPppxw2Oy-10" edge="1">
          <mxGeometry width="50" height="50" relative="1" as="geometry">
            <mxPoint x="340" y="260" as="sourcePoint" />
            <mxPoint x="260" y="410" as="targetPoint" />
          </mxGeometry>
        </mxCell>
        <mxCell id="_RfpcJCl9jh808tVHMJi-2" style="edgeStyle=orthogonalEdgeStyle;rounded=0;orthogonalLoop=1;jettySize=auto;html=1;exitX=0.5;exitY=0;exitDx=0;exitDy=0;entryX=0.5;entryY=1;entryDx=0;entryDy=0;" edge="1" parent="1" source="_RfpcJCl9jh808tVHMJi-1" target="V9xXHOny_GglPppxw2Oy-6">
          <mxGeometry relative="1" as="geometry" />
        </mxCell>
        <mxCell id="_RfpcJCl9jh808tVHMJi-1" value="Layer n-1" style="rounded=0;whiteSpace=wrap;html=1;" vertex="1" parent="1">
          <mxGeometry x="140" y="360" width="80" height="40" as="geometry" />
        </mxCell>
        <mxCell id="_RfpcJCl9jh808tVHMJi-4" style="edgeStyle=orthogonalEdgeStyle;rounded=0;orthogonalLoop=1;jettySize=auto;html=1;exitX=0.5;exitY=0;exitDx=0;exitDy=0;entryX=0.5;entryY=1;entryDx=0;entryDy=0;" edge="1" parent="1" source="_RfpcJCl9jh808tVHMJi-3" target="V9xXHOny_GglPppxw2Oy-6">
          <mxGeometry relative="1" as="geometry" />
        </mxCell>
        <mxCell id="_RfpcJCl9jh808tVHMJi-3" value="Activation function" style="rounded=0;whiteSpace=wrap;html=1;" vertex="1" parent="1">
          <mxGeometry x="40" y="360" width="80" height="40" as="geometry" />
        </mxCell>
        <mxCell id="_RfpcJCl9jh808tVHMJi-9" style="edgeStyle=orthogonalEdgeStyle;rounded=0;orthogonalLoop=1;jettySize=auto;html=1;exitX=0.5;exitY=0;exitDx=0;exitDy=0;entryX=0.5;entryY=1;entryDx=0;entryDy=0;" edge="1" parent="1" source="_RfpcJCl9jh808tVHMJi-5" target="_RfpcJCl9jh808tVHMJi-1">
          <mxGeometry relative="1" as="geometry" />
        </mxCell>
        <mxCell id="_RfpcJCl9jh808tVHMJi-5" value="Activated layer n-2" style="rounded=0;whiteSpace=wrap;html=1;" vertex="1" parent="1">
          <mxGeometry x="140" y="440" width="80" height="40" as="geometry" />
        </mxCell>
        <mxCell id="_RfpcJCl9jh808tVHMJi-8" style="edgeStyle=orthogonalEdgeStyle;rounded=0;orthogonalLoop=1;jettySize=auto;html=1;exitX=0.5;exitY=0;exitDx=0;exitDy=0;entryX=0.5;entryY=1;entryDx=0;entryDy=0;" edge="1" parent="1" source="_RfpcJCl9jh808tVHMJi-6" target="_RfpcJCl9jh808tVHMJi-1">
          <mxGeometry relative="1" as="geometry" />
        </mxCell>
        <mxCell id="_RfpcJCl9jh808tVHMJi-6" value="Weights n-2" style="rounded=0;whiteSpace=wrap;html=1;" vertex="1" parent="1">
          <mxGeometry x="40" y="440" width="80" height="40" as="geometry" />
        </mxCell>
        <mxCell id="_RfpcJCl9jh808tVHMJi-11" style="edgeStyle=orthogonalEdgeStyle;rounded=0;orthogonalLoop=1;jettySize=auto;html=1;exitX=0.5;exitY=0;exitDx=0;exitDy=0;entryX=0.5;entryY=1;entryDx=0;entryDy=0;" edge="1" parent="1" source="_RfpcJCl9jh808tVHMJi-7" target="_RfpcJCl9jh808tVHMJi-1">
          <mxGeometry relative="1" as="geometry" />
        </mxCell>
        <mxCell id="_RfpcJCl9jh808tVHMJi-7" value="Biases n-2" style="rounded=0;whiteSpace=wrap;html=1;" vertex="1" parent="1">
          <mxGeometry x="240" y="440" width="80" height="40" as="geometry" />
        </mxCell>
        <mxCell id="_RfpcJCl9jh808tVHMJi-13" value="" style="endArrow=classic;html=1;rounded=0;entryX=0.5;entryY=1;entryDx=0;entryDy=0;" edge="1" parent="1" target="_RfpcJCl9jh808tVHMJi-5">
          <mxGeometry width="50" height="50" relative="1" as="geometry">
            <mxPoint x="180" y="500" as="sourcePoint" />
            <mxPoint x="170" y="510" as="targetPoint" />
          </mxGeometry>
        </mxCell>
        <mxCell id="_RfpcJCl9jh808tVHMJi-14" value="" style="endArrow=none;dashed=1;html=1;rounded=0;" edge="1" parent="1">
          <mxGeometry width="50" height="50" relative="1" as="geometry">
            <mxPoint x="180" y="520" as="sourcePoint" />
            <mxPoint x="180" y="500" as="targetPoint" />
          </mxGeometry>
        </mxCell>
        <mxCell id="_RfpcJCl9jh808tVHMJi-15" value="" style="shape=curlyBracket;whiteSpace=wrap;html=1;rounded=1;flipH=1;labelPosition=right;verticalLabelPosition=middle;align=left;verticalAlign=middle;" vertex="1" parent="1">
          <mxGeometry x="340" y="190" width="20" height="140" as="geometry" />
        </mxCell>
        <mxCell id="_RfpcJCl9jh808tVHMJi-17" value="Structure repeats" style="whiteSpace=wrap;html=1;strokeColor=none;fillColor=none;" vertex="1" parent="1">
          <mxGeometry x="360" y="240" width="70" height="40" as="geometry" />
        </mxCell>
        <mxCell id="_RfpcJCl9jh808tVHMJi-18" value="C = Σ&lt;sub style=&quot;font-size: 15px;&quot;&gt;i=0&lt;/sub&gt;&lt;sup style=&quot;font-size: 15px;&quot;&gt;9&lt;/sup&gt;(a&lt;sup&gt;(n)&lt;/sup&gt;&lt;sub style=&quot;font-size: 15px;&quot;&gt;i&lt;/sub&gt; -y̅&lt;sub style=&quot;font-size: 15px;&quot;&gt;i&lt;/sub&gt;)&lt;sup style=&quot;font-size: 15px;&quot;&gt;2&lt;/sup&gt;" style="text;html=1;strokeColor=none;fillColor=none;align=center;verticalAlign=middle;whiteSpace=wrap;rounded=0;fontSize=15;" vertex="1" parent="1">
          <mxGeometry x="480" y="40" width="160" height="40" as="geometry" />
        </mxCell>
        <mxCell id="_RfpcJCl9jh808tVHMJi-20" value="&lt;font style=&quot;font-size: 15px;&quot;&gt;a&lt;sup&gt;(n)&lt;/sup&gt;&lt;sub&gt;i&lt;/sub&gt;&amp;nbsp;= σ(z&lt;sup&gt;(n)&lt;/sup&gt;&lt;sub&gt;i&lt;/sub&gt;)&lt;/font&gt;" style="text;html=1;strokeColor=none;fillColor=none;align=center;verticalAlign=middle;whiteSpace=wrap;rounded=0;" vertex="1" parent="1">
          <mxGeometry x="480" y="120" width="160" height="40" as="geometry" />
        </mxCell>
        <mxCell id="_RfpcJCl9jh808tVHMJi-21" value="z&lt;sup style=&quot;font-size: 15px;&quot;&gt;(n)&lt;/sup&gt;&lt;sub style=&quot;font-size: 15px;&quot;&gt;i&lt;/sub&gt;&amp;nbsp;= Σ&lt;span style=&quot;font-size: 15px;&quot;&gt;&lt;sub style=&quot;font-size: 15px;&quot;&gt;j=0&lt;/sub&gt;&lt;span style=&quot;font-size: 15px;&quot;&gt;(&lt;/span&gt;w&lt;sup style=&quot;font-size: 15px;&quot;&gt;(n-1)&lt;/sup&gt;&lt;sub style=&quot;font-size: 15px;&quot;&gt;i,j&amp;nbsp;&lt;/sub&gt;a&lt;sup style=&quot;font-size: 15px;&quot;&gt;(n-1)&lt;/sup&gt;&lt;sub style=&quot;font-size: 15px;&quot;&gt;j&lt;/sub&gt;&lt;span style=&quot;font-size: 15px;&quot;&gt;) + b&lt;sup&gt;(n-1)&lt;/sup&gt;&lt;sub&gt;i&lt;/sub&gt;&lt;/span&gt;&lt;/span&gt;" style="text;html=1;strokeColor=none;fillColor=none;align=center;verticalAlign=middle;whiteSpace=wrap;rounded=0;fontSize=15;" vertex="1" parent="1">
          <mxGeometry x="480" y="200" width="280" height="40" as="geometry" />
        </mxCell>
      </root>
    </mxGraphModel>
  </diagram>
</mxfile>
